# xmcd CD database file
#
# Track frame offsets:
#	150
#	11832
#	26067
#	39607
#	53107
#	68165
#	81957
#	95232
#	109605
#	120220
#	135065
#	148955
#	163332
#	173800
#	185677
#	198642
#
# Disc length: 2843 seconds
#
# Revision: 2
# Processed by: cddbd v1.5.2PL0 Copyright (c) Steve Scherf et al.
# Submitted via: CDex 1.70beta2
#
DISCID=e40b1910
DTITLE=Nat King Cole - Nat King Cole Trio [CD2)
DYEAR=1996
DGENRE=Jazz
TTITLE0=Straighten up and fly right
TTITLE1=Easy listening blues
TTITLE2=This way out
TTITLE3=What is this thing called love
TTITLE4=The man I love
TTITLE5=Look what you've done to me
TTITLE6=Prelude in c sharp minor
TTITLE7=I realize now
TTITLE8=Bring another drink
TTITLE9=The frim fram sauce
TTITLE10=Come to baby, do
TTITLE11=Homeward bound
TTITLE12=I'm an errand boy for rhythm
TTITLE13=Loan me two till tuesday
TTITLE14=I like to riff
TTITLE15=Call the police
EXTD=YEAR: 1996
EXTT0=
EXTT1=
EXTT2=
EXTT3=
EXTT4=
EXTT5=
EXTT6=
EXTT7=
EXTT8=
EXTT9=
EXTT10=
EXTT11=
EXTT12=
EXTT13=
EXTT14=
EXTT15=
PLAYORDER=
